<?xml version="1.0" ?><!DOCTYPE svg  PUBLIC '-//W3C//DTD SVG 1.1//EN'  'http://www.w3.org/Graphics/SVG/1.1/DTD/svg11.dtd'><svg enable-background="new 0 0 512 512" id="Layer_1" version="1.1" viewBox="0 0 512 512" xml:space="preserve" xmlns="http://www.w3.org/2000/svg" xmlns:xlink="http://www.w3.org/1999/xlink"><g><circle cx="256" cy="256" fill="#FF8800" r="256"/><g><path d="M347.6,246c-5.7,0-11.1,1.1-16.2,3.3c-1.1-12.6-5-24.2-11.8-34.7c-6.8-10.5-15.6-18.8-26.6-24.8    c-11-6.1-22.8-9.1-35.5-9.1c-5.5,0-11,0.7-16.6,2c-2.6,0.8-3.9,3.5-3.9,7.8V328c0,0.5,0.2,1.1,0.6,1.8c0.4,0.7,0.9,1.1,1.7,1.4    l108.4,0.1c11.5,0,21.4-4.2,29.7-12.5c8.3-8.3,12.4-18.4,12.4-30.2c0-11.7-4.1-21.7-12.4-30.1C369.2,250.2,359.2,246,347.6,246z" fill="#FFFFFF"/><path d="M131.3,258.3c-2.5,0-4.6,0.9-6.4,2.7c-1.8,1.8-2.7,4-2.7,6.6v36.6c0,3.4,1.2,5.9,3.6,7.6    c2.4,1.7,5,2.3,7.7,1.8c2.6-0.5,4.4-1.4,5.4-2.8c1-1.4,1.6-3.6,1.6-6.7v-36.6c0-2.6-0.9-4.8-2.7-6.6    C136,259.2,133.9,258.3,131.3,258.3z" fill="#FFFFFF"/><path d="M159.9,225.3c-2.5,0-4.6,0.9-6.4,2.7c-1.8,1.8-2.7,4-2.7,6.5v85.4c0,2.4,0.9,4.3,2.6,5.5    c1.7,1.2,3.9,1.8,6.5,1.8c2.7,0,5-0.6,6.7-1.8c1.7-1.2,2.5-3.1,2.5-5.5v-85.4c0-2.5-0.9-4.7-2.7-6.5    C164.7,226.2,162.5,225.3,159.9,225.3z" fill="#FFFFFF"/><path d="M188.7,236.5c-2.6,0-4.8,0.9-6.6,2.8c-1.8,1.8-2.7,4.1-2.7,6.7v77.9l0,0c0,2.4,0.9,4.3,2.6,5.5    s4,1.8,6.7,1.8c2.7,0,4.8-0.6,6.5-1.8c1.7-1.2,2.5-3.1,2.5-5.5V246c0-2.6-0.9-4.8-2.7-6.7C193.3,237.5,191.2,236.5,188.7,236.5z" fill="#FFFFFF"/><path d="M220.1,186c-2.7-0.7-5.4,0.1-8.1,2.4c-2.7,2.3-4,5.5-4,9.6v126.3l0,0c0,4.6,3.1,6.9,9.2,6.9    c6.1,0,9.2-2.3,9.2-6.9V198C226.4,191,224.3,187,220.1,186z" fill="#FFFFFF"/></g></g></svg>