<?xml version="1.0" ?><!DOCTYPE svg  PUBLIC '-//W3C//DTD SVG 1.1//EN'  'http://www.w3.org/Graphics/SVG/1.1/DTD/svg11.dtd'><svg enable-background="new 0 0 56.693 56.693" height="56.693px" id="Layer_1" version="1.1" viewBox="0 0 56.693 56.693" width="56.693px" xml:space="preserve" xmlns="http://www.w3.org/2000/svg" xmlns:xlink="http://www.w3.org/1999/xlink"><path d="M28.348,5.158c-13.6,0-24.625,11.023-24.625,24.623c0,13.6,11.025,24.625,24.625,24.625  c13.598,0,24.623-11.025,24.623-24.625C52.971,16.181,41.945,5.158,28.348,5.158z M11.847,33.124  c-0.011,0.078-0.068,0.133-0.138,0.133c-0.072,0-0.128-0.055-0.138-0.133l-0.252-1.885l0.252-1.916  c0.01-0.08,0.066-0.137,0.138-0.137c0.07,0,0.127,0.057,0.138,0.137l0.299,1.916L11.847,33.124z M13.128,34.271  c-0.012,0.082-0.071,0.139-0.144,0.139s-0.133-0.059-0.144-0.141l-0.339-3.029l0.339-3.1c0.01-0.08,0.071-0.139,0.144-0.139  s0.132,0.057,0.144,0.139l0.385,3.1L13.128,34.271z M14.513,34.784c-0.01,0.096-0.083,0.168-0.173,0.168  c-0.091,0-0.164-0.072-0.173-0.17l-0.322-3.543l0.322-3.676c0.009-0.1,0.082-0.172,0.173-0.172c0.089,0,0.163,0.072,0.173,0.172  l0.366,3.676L14.513,34.784z M15.909,34.894c-0.01,0.115-0.097,0.199-0.202,0.199c-0.107,0-0.195-0.084-0.203-0.199L15.2,31.241  l0.305-3.777c0.008-0.115,0.095-0.201,0.203-0.201c0.105,0,0.191,0.086,0.202,0.199l0.345,3.779L15.909,34.894z M17.316,34.925  c-0.009,0.131-0.108,0.229-0.231,0.229c-0.125,0-0.225-0.098-0.232-0.229l-0.287-3.684l0.287-3.504  c0.008-0.131,0.107-0.23,0.232-0.23c0.123,0,0.223,0.098,0.231,0.227l0.326,3.508L17.316,34.925z M18.735,34.927v-0.002  c-0.008,0.146-0.123,0.26-0.261,0.26c-0.139,0-0.254-0.113-0.261-0.258l-0.27-3.686l0.27-5.701c0.007-0.145,0.122-0.258,0.261-0.258  c0.138,0,0.253,0.113,0.261,0.258l0.306,5.701L18.735,34.927z M20.164,34.905v-0.002c-0.008,0.162-0.135,0.287-0.291,0.287  s-0.284-0.125-0.291-0.285l-0.252-3.662l0.252-7.006c0.007-0.162,0.135-0.287,0.291-0.287s0.283,0.125,0.291,0.287l0.285,7.006  L20.164,34.905z M21.605,34.868v-0.002c-0.008,0.178-0.148,0.316-0.32,0.316c-0.174,0-0.314-0.139-0.32-0.314l-0.235-3.625  l0.235-7.59c0.006-0.178,0.146-0.318,0.32-0.318c0.172,0,0.312,0.141,0.32,0.318l0.265,7.59L21.605,34.868z M23.057,34.843v0.004  v-0.002c-0.008,0.195-0.16,0.346-0.35,0.346s-0.344-0.152-0.35-0.344l-0.217-3.604l0.217-7.846c0.006-0.195,0.16-0.346,0.35-0.346  c0.19,0,0.344,0.15,0.35,0.346l0.245,7.846l-0.245,3.602C23.057,34.845,23.057,34.845,23.057,34.843z M24.52,34.812V34.81  c-0.006,0.211-0.172,0.379-0.379,0.379c-0.208,0-0.375-0.168-0.379-0.377l-0.2-3.568l0.2-7.645c0.004-0.211,0.171-0.377,0.379-0.377  c0.207,0,0.373,0.164,0.379,0.377l0.225,7.645L24.52,34.812z M25.994,34.79v-0.004c-0.006,0.229-0.186,0.408-0.408,0.408  c-0.225,0-0.404-0.18-0.409-0.404l-0.183-3.545l0.183-7.367c0.005-0.229,0.185-0.406,0.409-0.406c0.223,0,0.402,0.178,0.408,0.404  l0.204,7.369L25.994,34.79z M27.479,34.767v-0.002c-0.004,0.24-0.201,0.438-0.438,0.438c-0.238,0-0.434-0.197-0.438-0.436  c0,0-0.166-3.518-0.166-3.523l0.166-8.764c0.004-0.24,0.199-0.436,0.438-0.436c0.236,0,0.434,0.196,0.438,0.436l0.185,8.766  L27.479,34.767z M28.957,34.718v-0.004c-0.004,0.256-0.213,0.465-0.467,0.465s-0.465-0.209-0.468-0.463l-0.191-3.471l0.191-9.559  c0.003-0.257,0.214-0.467,0.468-0.467s0.463,0.21,0.467,0.466l0.209,9.56L28.957,34.718z M41.581,35.21  c-0.075,0-11.754-0.004-11.765-0.006c-0.254-0.025-0.455-0.242-0.459-0.502v-13.47c0.004-0.248,0.088-0.375,0.409-0.5  c0.824-0.318,1.757-0.508,2.716-0.508c3.912,0,7.119,3.001,7.457,6.826c0.505-0.211,1.061-0.328,1.642-0.328  c2.345,0,4.245,1.898,4.245,4.244C45.826,33.31,43.926,35.21,41.581,35.21z"/></svg>